<svg width="17" height="17" viewBox="0 0 17 17" fill="none" xmlns="http://www.w3.org/2000/svg">
<g id="Icon">
<g id="Icon/Outline/arrow-right">
<mask id="mask0_642_159" style="mask-type:luminance" maskUnits="userSpaceOnUse" x="0" y="0" width="17" height="17">
<rect id="Icon/Outline/arrow-right (Background/Mask)" x="0.693939" y="0.0422058" width="16.0031" height="16.0031" fill="white"/>
</mask>
<g mask="url(#mask0_642_159)">
<path id="Icon_2" d="M10.6578 2.74749L10.0291 3.37615V3.37615L10.6578 2.74749ZM9.40046 2.74749L10.0291 3.37616L10.0291 3.37615L9.40046 2.74749ZM15.3254 7.41508L15.954 6.78641L15.954 6.78641L15.3254 7.41508ZM15.3254 8.6724L15.954 9.30107L15.954 9.30107L15.3254 8.6724ZM14.068 8.6724L14.6967 8.04374V8.04374L14.068 8.6724ZM9.40046 4.00482L10.0291 3.37615L10.0291 3.37615L9.40046 4.00482ZM15.3254 8.6724L15.954 9.30107V9.30107L15.3254 8.6724ZM15.3254 7.41508L15.954 6.78641L15.954 6.78641L15.3254 7.41508ZM10.6578 13.34L10.0291 12.7113H10.0291L10.6578 13.34ZM9.40046 12.0827L8.7718 11.454H8.77179L9.40046 12.0827ZM14.068 7.41508L13.4394 6.78641V6.78641L14.068 7.41508ZM2.69435 7.15467L2.69435 6.26561H2.69435V7.15467ZM14.6967 7.15468V8.04374V7.15468ZM14.6967 8.9328V9.82187V8.9328ZM2.69435 8.9328L2.69435 8.04374H2.69435V8.9328ZM11.2864 2.11883C10.592 1.42443 9.4662 1.42443 8.7718 2.11883L10.0291 3.37615L10.0291 3.37615L11.2864 2.11883ZM15.954 6.78641L11.2864 2.11883L10.0291 3.37615L14.6967 8.04374L15.954 6.78641ZM15.954 9.30107C16.6484 8.60666 16.6484 7.48082 15.954 6.78641L14.6967 8.04374L14.6967 8.04374L15.954 9.30107ZM13.4394 9.30107C14.1338 9.99547 15.2596 9.99547 15.954 9.30107L14.6967 8.04374V8.04374L13.4394 9.30107ZM8.7718 4.63348L13.4394 9.30107L14.6967 8.04374L10.0291 3.37615L8.7718 4.63348ZM8.7718 2.11883C8.07739 2.81323 8.07739 3.93908 8.7718 4.63348L10.0291 3.37615V3.37616L8.7718 2.11883ZM15.954 9.30107C16.6484 8.60666 16.6484 7.48082 15.954 6.78641L14.6967 8.04374L14.6967 8.04374L15.954 9.30107ZM11.2864 13.9686L15.954 9.30107L14.6967 8.04374L10.0291 12.7113L11.2864 13.9686ZM8.77179 13.9686C9.4662 14.6631 10.592 14.6631 11.2864 13.9686L10.0291 12.7113H10.0291L8.77179 13.9686ZM8.77179 11.454C8.07739 12.1484 8.07739 13.2742 8.77179 13.9686L10.0291 12.7113V12.7113L8.77179 11.454ZM13.4394 6.78641L8.7718 11.454L10.0291 12.7113L14.6967 8.04374L13.4394 6.78641ZM15.954 6.78641C15.2596 6.09201 14.1338 6.09201 13.4394 6.78641L14.6967 8.04374H14.6967L15.954 6.78641ZM2.69435 6.26561C1.71231 6.26561 0.916219 7.06171 0.916219 8.04374H2.69435V6.26561ZM14.6967 6.26561L2.69435 6.26561L2.69435 8.04374L14.6967 8.04374V6.26561ZM16.4748 8.04374C16.4748 7.06171 15.6787 6.26561 14.6967 6.26561V8.04374H16.4748ZM14.6967 9.82187C15.6787 9.82187 16.4748 9.02577 16.4748 8.04374H14.6967V9.82187ZM2.69435 9.82187L14.6967 9.82187V8.04374L2.69435 8.04374L2.69435 9.82187ZM0.916219 8.04374C0.916219 9.02577 1.71231 9.82187 2.69435 9.82187V8.04374H0.916219Z" fill="#460482"/>
</g>
</g>
</g>
</svg>
