<svg width="22" height="22" viewBox="0 0 22 22" fill="none" xmlns="http://www.w3.org/2000/svg">
<g id="material-symbols:arrow-right-alt-rounded">
<path id="Vector" d="M12.2726 15.649C12.1016 15.4781 12.0196 15.2716 12.0264 15.0294C12.0333 14.7873 12.1224 14.5808 12.2939 14.4098L14.7083 11.9955H5.17915C4.93701 11.9955 4.73389 11.9135 4.56981 11.7494C4.40572 11.5853 4.32396 11.3825 4.32453 11.1409C4.32453 10.8987 4.40657 10.6956 4.57066 10.5315C4.73475 10.3675 4.93758 10.2857 5.17915 10.2863H14.7083L12.2726 7.85057C12.1016 7.67965 12.0162 7.47653 12.0162 7.24123C12.0162 7.00592 12.1016 6.80309 12.2726 6.63273C12.4435 6.46181 12.6466 6.37634 12.8819 6.37634C13.1172 6.37634 13.3201 6.46181 13.4904 6.63273L17.4003 10.5427C17.4858 10.6281 17.5465 10.7207 17.5824 10.8204C17.6183 10.9201 17.6359 11.0269 17.6354 11.1409C17.6354 11.2548 17.6174 11.3617 17.5815 11.4614C17.5456 11.5611 17.4852 11.6537 17.4003 11.7391L13.469 15.6704C13.3124 15.8271 13.1166 15.9054 12.8819 15.9054C12.6472 15.9054 12.4441 15.82 12.2726 15.649Z" fill="#460482"/>
</g>
</svg>
