<svg width="25" height="24" viewBox="0 0 25 24" fill="none" xmlns="http://www.w3.org/2000/svg">
<g id="material-symbols:check-circle-rounded">
<path id="Vector" d="M11.3658 13.8L9.21581 11.65C9.03247 11.4667 8.79914 11.375 8.51581 11.375C8.23247 11.375 7.99914 11.4667 7.81581 11.65C7.63247 11.8333 7.54081 12.0667 7.54081 12.35C7.54081 12.6333 7.63247 12.8667 7.81581 13.05L10.6658 15.9C10.8658 16.1 11.0991 16.2 11.3658 16.2C11.6325 16.2 11.8658 16.1 12.0658 15.9L17.7158 10.25C17.8991 10.0667 17.9908 9.83333 17.9908 9.55C17.9908 9.26667 17.8991 9.03333 17.7158 8.85C17.5325 8.66667 17.2991 8.575 17.0158 8.575C16.7325 8.575 16.4991 8.66667 16.3158 8.85L11.3658 13.8ZM12.7658 22C11.3825 22 10.0825 21.7373 8.86581 21.212C7.64914 20.6867 6.59081 19.9743 5.69081 19.075C4.79081 18.175 4.07847 17.1167 3.55381 15.9C3.02914 14.6833 2.76647 13.3833 2.76581 12C2.76581 10.6167 3.02847 9.31667 3.55381 8.1C4.07914 6.88333 4.79147 5.825 5.69081 4.925C6.59081 4.025 7.64914 3.31267 8.86581 2.788C10.0825 2.26333 11.3825 2.00067 12.7658 2C14.1491 2 15.4491 2.26267 16.6658 2.788C17.8825 3.31333 18.9408 4.02567 19.8408 4.925C20.7408 5.825 21.4535 6.88333 21.9788 8.1C22.5041 9.31667 22.7665 10.6167 22.7658 12C22.7658 13.3833 22.5031 14.6833 21.9778 15.9C21.4525 17.1167 20.7401 18.175 19.8408 19.075C18.9408 19.975 17.8825 20.6877 16.6658 21.213C15.4491 21.7383 14.1491 22.0007 12.7658 22Z" fill="#460482"/>
</g>
</svg>
